# AST/ASF file generated using VICON BodyLanguage
# -----------------------------------------------
:version 1.10
:name VICON
:units
  mass 1.0
  length 0.45
  angle deg
:documentation
   .ast/.asf automatically generated from VICON data using
   VICON BodyBuilder and BodyLanguage model FoxedUp or BRILLIANT.MOD
:root
   order TX TY TZ RX RY RZ
   axis XYZ
   position 0 0 0  
   orientation 0 0 0 
:bonedata
  begin
     id 1 
     name lhipjoint
     direction 0.577973 -0.728611 0.367523 
     length 2.48544 
     axis 0 0 0  XYZ
  end
  begin
     id 2 
     name lfemur
     direction 0.34202 -0.939693 0  
     length 7.1921  
     axis 0 0 20  XYZ
    dof rx ry rz
    limits (-160.0 20.0)
           (-70.0 70.0)
           (-60.0 70.0)
  end
  begin
     id 3 
     name ltibia
     direction 0.34202 -0.939693 0   
     length 7.71059   
     axis 0 0 20   XYZ
    dof rx
    limits (-10.0 170.0)
  end
  begin
     id 4 
     name lfoot
     direction 0.089538 -0.246004 0.965124   
     length 2.19909   
     axis -90 7.62852e-016 20   XYZ
    dof rx rz
    limits (-45.0 90.0)
           (-70.0 20.0)
  end
  begin
     id 5 
     name ltoes
     direction 1.53544e-011 -4.21829e-011 1   
     length 1.10116   
     axis -90 7.62852e-016 20   XYZ
    dof rx
    limits (-90.0 20.0)
  end
  begin
     id 6 
     name rhipjoint
     direction -0.554414 -0.743062 0.374812   
     length 2.4371  
     axis 0 0 0  XYZ 
  end
  begin
     id 7 
     name rfemur
     direction -0.34202 -0.939693 0   
     length 7.47254   
     axis 0 0 -20   XYZ
    dof rx ry rz
    limits (-160.0 20.0)
           (-70.0 70.0)
           (-70.0 60.0)
  end
  begin
     id 8 
     name rtibia
     direction -0.34202 -0.939693 0   
     length 7.65855   
     axis 0 0 -20   XYZ
    dof rx
    limits (-10.0 170.0)
 end
 begin
     id 9 
     name rfoot
     direction -0.133779 -0.367555 0.92033   
     length 2.43006  
     axis -90 -7.62852e-016 -20   XYZ
    dof rx rz
    limits (-45.0 90.0)
           (-20.0 70.0)
  end
  begin
     id 10 
     name rtoes
     direction -1.53563e-011 -4.21889e-011 1   
     length 1.19625   
     axis -90 -7.62852e-016 -20   XYZ
    dof rx
    limits (-90.0 20.0)
  end
  begin
     id 11 
     name lowerback
     direction 0.0249066 0.998043 -0.0573585   
     length 2.08485   
     axis 0 0 0   XYZ
    dof rx ry rz
    limits (-20.0 45.0)
           (-30.0 30.0)
           (-30.0 30.0)
  end
  begin
     id 12 
     name upperback
     direction 0.0237884 0.999673 0.00943178   
     length 2.08515   
     axis 0 0 0   XYZ
    dof rx ry rz
    limits (-20.0 45.0)
           (-30.0 30.0)
           (-30.0 30.0)
  end
  begin
     id 13 
     name thorax
     direction 0.0106671 0.999301 0.0358174   
     length 2.09037   
     axis 0 0 0   XYZ
    dof rx ry rz
    limits (-20.0 45.0)
           (-30.0 30.0)
           (-30.0 30.0)
  end
  begin
     id 14 
     name lowerneck
     direction -0.0580016 0.987052 0.149546   
     length 1.84454   
     axis 0 0 0   XYZ
    dof rx ry rz
    limits (-20.0 45.0)
           (-30.0 30.0)
           (-30.0 30.0)
  end
  begin
     id 15 
     name upperneck
     direction 0.079456 0.981963 -0.171567   
     length 1.88141   
     axis 0 0 0   XYZ
    dof rx ry rz
    limits (-20.0 45.0)
           (-30.0 30.0)
           (-30.0 30.0)
  end
  begin
     id 16
     name head
     direction 0.0262167 0.9967 -0.0768276  
     length 1.89541  
     axis 0 0 0   XYZ
    dof rx ry rz
    limits (-20.0 45.0)
           (-30.0 30.0)
           (-30.0 30.0)
  end
  begin
     id 17 
     name lclavicle
     direction 0.946135 0.322134 -0.0325326  
     length 3.949  
     axis 0 0 0   XYZ
    dof ry rz
    limits (-20.0 10.0)
           (0.0 20.0)
  end
  begin
     id 18 
     name lhumerus
     direction 1 -4.48964e-011 1.94005e-028   
     length 5.10995   
     axis 180 -30 -90   XYZ
    dof rx ry rz
    limits (-60.0 90.0)
           (-90.0 90.0)
           (-90.0 90.0)
  end
  begin
     id 19
     name lradius
     direction 1 -4.48976e-011 2.87852e-027   
     length 3.21207   
     axis 180 -30 -90   XYZ
    dof rx
    limits (-10.0 170.0)
  end
  begin
     id 20
     name lwrist
     direction 1 -4.48963e-011 1.9975e-027   
     length 1.60604   
     axis 2.96054e-016 90 90   XYZ
    dof ry
    limits (-180.0 0.0)
 end
  begin
     id 21 
     name lhand
     direction 1 -4.48919e-011 4.00227e-027   
     length 0.63349   
     axis -2.5488e-015 90 90   XYZ
    dof rx rz
    limits (-90.0 90.0)
           (-45.0 45.0)
  end
  begin
     id 22 
     name lfingers
     direction 1 -4.49037e-011 7.9652e-027   
     length 0.510736   
     axis -5.0975e-015 90 90   XYZ
    dof rx
    limits (0.0 90.0)
  end
  begin
     id 23
     name lthumb
     direction 0.707107 -6.34922e-011 0.707107   
     length 0.733318   
     axis -90 45 -4.48553e-014   XYZ
    dof rx rz
    limits (-45.0 45.0)
           (-45.0 45.0)
  end
  begin
     id 24 
     name rclavicle
     direction -0.940085 0.328911 -0.0897654   
     length 3.93848  
     axis 0 0 0   XYZ 
    dof ry rz
    limits (-10.0 20.0)
           (-20.0 0.0)
  end
  begin
     id 25 
     name rhumerus
     direction -1 -4.48958e-011 3.02044e-027  
     length 5.25109   
     axis 180 30 90   XYZ
    dof rx ry rz
    limits (-90.0 60.0)
           (-90.0 90.0)
           (-90.0 90.0)
  end
  begin
     id 26 
     name rradius
     direction -1 -4.4897e-011 9.78352e-028   
     length 3.28364   
     axis 180 30 90   XYZ
    dof rx
    limits (-10.0 170.0)
  end
  begin
     id 27 
     name rwrist
     direction -1 -4.48943e-011 1.99918e-027   
     length 1.64182   
     axis 2.96054e-016 -90 -90   XYZ
    dof ry
    limits (-180.0 0.0)
  end
  begin
     id 28
     name rhand
     direction -1 -4.49024e-011 3.98478e-027   
     length 0.599745   
     axis -2.5488e-015 -90 -90   XYZ
    dof rx rz
    limits (-90.0 90.0)
           (-45.0 45.0)
  end
  begin
     id 29
     name rfingers
     direction -1 -4.48914e-011 8.00621e-027   
     length 0.48353   
     axis -5.0975e-015 -90 -90   XYZ
    dof rx
    limits (0.0 90.0)
  end
  begin
     id 30
     name rthumb
     direction -0.707107 -6.34992e-011 0.707107   
     length 0.694255   
     axis -90 -45 4.48553e-014   XYZ
    dof rx rz
    limits (-45.0 45.0)
           (-45.0 45.0)
  end
:hierarchy
  begin
    root lhipjoint rhipjoint lowerback
    lhipjoint lfemur
    lfemur ltibia
    ltibia lfoot
    lfoot ltoes
    rhipjoint rfemur
    rfemur rtibia
    rtibia rfoot
    rfoot rtoes
    lowerback upperback
    upperback thorax
    thorax lowerneck lclavicle rclavicle
    lowerneck upperneck
    upperneck head
    lclavicle lhumerus
    lhumerus lradius
    lradius lwrist
    lwrist lhand lthumb
    lhand lfingers
    rclavicle rhumerus
    rhumerus rradius
    rradius rwrist
    rwrist rhand rthumb
    rhand rfingers
  end

#!OML:ASF E:\CV Data\Top Level 1\Subject 1\Session 1\player.ASF
:FULLY-SPECIFIED
:DEGREES
855
root 10.9115 16.7395 -10.5197 9.65374 -67.0103 1.55272
lowerback 10.1512 0.804467 -1.6071
upperback 0.928238 0.9538 1.92496
thorax -4.78677 0.508368 2.78223
lowerneck -16.308 9.66182 -3.11094
upperneck 12.6554 13.7943 -0.133866
head 6.29021 6.4984 1.79684
rclavicle 4.31363e-014 -1.03368e-014
rhumerus 141.996 137.398 77.2303
rradius 92.9997
rwrist 9.35802
rhand -29.398 27.2571
rfingers 7.12502
rthumb -2.73608 -2.70506
lclavicle 4.31363e-014 -1.03368e-014
lhumerus -41.184 -34.7416 112.757
lradius 93.6271
lwrist 34.1458
lhand -29.9129 11.0541
lfingers 7.12502
lthumb -3.23333 41.0094
rfemur -49.1159 -3.1472 20.5777
rtibia 45.135
rfoot -6.49149 -11.4954
rtoes 17.6951
lfemur -1.16298 5.754 -22.7657
ltibia 24.0583
lfoot -23.3335 9.09217
ltoes -15.4586
856
root 10.9824 16.7261 -10.5294 9.76742 -66.6905 1.5101
lowerback 10.1774 0.809244 -1.55595
upperback 0.969522 0.962376 1.87284
thorax -4.75688 0.510136 2.6973
lowerneck -16.3046 9.54938 -3.19306
upperneck 12.5374 13.6454 -0.0674759
head 6.24382 6.43277 1.81008
rclavicle 1.98785e-014 6.36111e-015
rhumerus 141.825 137.45 76.7213
rradius 92.6465
rwrist 9.4555
rhand -29.4176 27.2424
rfingers 7.12502
rthumb -2.75501 -2.71953
lclavicle 1.98785e-014 6.36111e-015
lhumerus -41.401 -34.5727 112.75
lradius 93.487
lwrist 33.966
lhand -30.4407 11.0857
lfingers 7.12502
lthumb -3.74304 41.0326
rfemur -49.4093 -3.39576 20.5476
rtibia 45.0913
rfoot -6.25764 -11.564
rtoes 17.7686
lfemur -1.43495 5.49168 -22.9273
ltibia 23.9382
lfoot -23.6648 9.7831
ltoes -14.5221
857
root 11.0488 16.7146 -10.5387 9.94221 -66.4104 1.38395
lowerback 10.2034 0.825117 -1.49428
upperback 1.00286 0.987489 1.83099
thorax -4.73613 0.520188 2.61484
lowerneck -16.3013 9.43952 -3.27425
upperneck 12.4617 13.501 0.00309594
head 6.21096 6.36816 1.82671
rclavicle -5.1684e-015 -9.54166e-015
rhumerus 141.617 137.495 76.1797
rradius 92.2917
rwrist 9.48155
rhand -29.4278 27.2177
rfingers 7.12502
rthumb -2.76489 -2.74411
lclavicle -5.1684e-015 -9.54166e-015
lhumerus -41.6601 -34.3864 112.77
lradius 93.3651
lwrist 33.8681
lhand -31.0129 11.1173
lfingers 7.12502
lthumb -4.29559 41.0537
rfemur -49.6471 -3.60958 20.5584
rtibia 45.0031
rfoot -6.01594 -11.6239
rtoes 17.8184
lfemur -1.6774 5.26228 -23.0327
ltibia 23.8262
lfoot -23.9723 10.3945
ltoes -13.6193
858
root 11.1104 16.7046 -10.5485 10.1361 -66.1777 1.22129
lowerback 10.2319 0.853152 -1.4526
upperback 1.02758 1.02699 1.79559
thorax -4.72699 0.538075 2.5484
lowerneck -16.3062 9.33686 -3.35178
upperneck 12.4294 13.3668 0.0783657
head 6.1933 6.30745 1.84746
rclavicle 4.96962e-015 -2.54444e-014
rhumerus 141.375 137.529 75.6124
rradius 91.9462
rwrist 9.46782
rhand -29.4305 27.1897
rfingers 7.12502
rthumb -2.76745 -2.77212
lclavicle 4.96962e-015 -2.54444e-014
lhumerus -41.9538 -34.1903 112.805
lradius 93.2634
lwrist 33.8542
lhand -31.56 11.1664
lfingers 7.12502
lthumb -4.82385 41.0915
rfemur -49.8368 -3.77599 20.5868
rtibia 44.8781
rfoot -5.76912 -11.6807
rtoes 17.8542
lfemur -1.89122 5.08384 -23.096
ltibia 23.725
lfoot -24.261 10.9186
ltoes -12.846
859
root 11.1672 16.6968 -10.5587 10.3166 -65.9894 1.06152
lowerback 10.2627 0.894756 -1.4493
upperback 1.04235 1.08056 1.76291
thorax -4.73099 0.563999 2.50444
lowerneck -16.3144 9.23926 -3.42519
upperneck 12.4253 13.2394 0.156802
head 6.18536 6.2494 1.87056
rclavicle -2.14687e-014 -5.56597e-015
rhumerus 141.099 137.558 75.0302
rradius 91.6108
rwrist 9.45154
rhand -29.4518 27.1859
rfingers 7.12502
rthumb -2.78808 -2.77561
lclavicle -2.14687e-014 -5.56597e-015
lhumerus -42.2702 -33.9711 112.852
lradius 93.1808
lwrist 33.8972
lhand -32.1044 11.2544
lfingers 7.12502
lthumb -5.34952 41.1669
rfemur -49.9836 -3.89762 20.6134
rtibia 44.7213
rfoot -5.52085 -11.7367
rtoes 17.8906
lfemur -2.08159 4.92268 -23.1388
ltibia 23.6374
lfoot -24.5117 11.3612
ltoes -12.1916
860
root 11.219 16.6912 -10.5689 10.4683 -65.8417 0.920852
lowerback 10.2883 0.946558 -1.47553
upperback 1.05331 1.14411 1.72161
thorax -4.73697 0.595469 2.46673
lowerneck -16.329 9.15066 -3.48031
upperneck 12.4389 13.1212 0.233589
head 6.1854 6.19584 1.89248
rclavicle 5.36719e-015 -7.55382e-015
rhumerus 140.803 137.588 74.4365
rradius 91.285
rwrist 9.47313
rhand -29.5052 27.2046
rfingers 7.12502
rthumb -2.83959 -2.7562
lclavicle 5.36719e-015 -7.55382e-015
lhumerus -42.5994 -33.7484 112.891
lradius 93.1137
lwrist 33.997
lhand -32.6419 11.3383
lfingers 7.12502
lthumb -5.86849 41.237
rfemur -50.0902 -3.98042 20.6302
rtibia 44.5382
rfoot -5.26939 -11.7914
rtoes 17.9135
lfemur -2.24801 4.80988 -23.1622
ltibia 23.5667
lfoot -24.7263 11.6771
ltoes -11.7038
861
root 11.2661 16.6885 -10.5798 10.5528 -65.7249 0.85962
lowerback 10.2987 1.00498 -1.56431
upperback 1.05523 1.20944 1.67164
thorax -4.74509 0.629208 2.45511
lowerneck -16.3295 9.0699 -3.51632
upperneck 12.44 13.0115 0.289492
head 6.18185 6.14596 1.90492
rclavicle 1.39149e-014 1.15295e-014
rhumerus 140.483 137.613 73.8372
rradius 90.97
rwrist 9.55676
rhand -29.6177 27.2457
rfingers 7.12502
rthumb -2.94825 -2.71366
lclavicle 1.39149e-014 1.15295e-014
lhumerus -42.9342 -33.5224 112.921
lradius 93.0583
lwrist 34.1391
lhand -33.13 11.4604
lfingers 7.12502
lthumb -6.33971 41.3455
rfemur -50.1776 -4.03294 20.6119
rtibia 44.3337
rfoot -5.01734 -11.8526
rtoes 17.9574
lfemur -2.41245 4.70634 -23.1952
ltibia 23.5152
lfoot -24.8876 11.8874
ltoes -11.4154
862
root 11.3082 16.6892 -10.59 10.539 -65.6295 0.911016
lowerback 10.2873 1.06505 -1.71307
upperback 1.05107 1.27005 1.60913
thorax -4.74828 0.661834 2.46513
lowerneck -16.3224 8.99986 -3.54934
upperneck 12.433 12.9165 0.336148
head 6.17511 6.10282 1.91474
rclavicle 1.15295e-014 -3.29983e-014
rhumerus 140.141 137.636 73.2381
rradius 90.6665
rwrist 9.69845
rhand -29.7485 27.2852
rfingers 7.12502
rthumb -3.07455 -2.67234
lclavicle 1.15295e-014 -3.29983e-014
lhumerus -43.261 -33.2732 112.941
lradius 93.0075
lwrist 34.3127
lhand -33.5263 11.5539
lfingers 7.12502
lthumb -6.72231 41.4272
rfemur -50.2463 -4.07869 20.5453
rtibia 44.1138
rfoot -4.76939 -11.9145
rtoes 18.0221
lfemur -2.57731 4.64744 -23.25
ltibia 23.4803
lfoot -25.0037 11.931
ltoes -11.2487
863
root 11.3456 16.6929 -10.5998 10.4158 -65.5507 1.09625
lowerback 10.2487 1.12946 -1.92683
upperback 1.03854 1.32902 1.52958
thorax -4.7462 0.694964 2.49456
lowerneck -16.2963 8.93556 -3.57253
upperneck 12.4052 12.8278 0.368189
head 6.16017 6.06275 1.91752
rclavicle 8.88567e-014 -4.33351e-014
rhumerus 139.784 137.675 72.6444
rradius 90.3758
rwrist 9.87037
rhand -29.86 27.3075
rfingers 7.12502
rthumb -3.18229 -2.64848
lclavicle 8.88567e-014 -4.33351e-014
lhumerus -43.5937 -32.9987 112.974
lradius 92.9538
lwrist 34.4876
lhand -33.8029 11.65
lfingers 7.12502
lthumb -6.98929 41.5146
rfemur -50.309 -4.1197 20.4225
rtibia 43.8858
rfoot -4.52692 -11.9829
rtoes 18.1006
lfemur -2.75161 4.67776 -23.3289
ltibia 23.4511
lfoot -25.0872 11.7655
ltoes -11.1516
864
root 11.3784 16.6998 -10.6088 10.1744 -65.486 1.43001
lowerback 10.1774 1.18644 -2.2073
upperback 1.01903 1.37084 1.43296
thorax -4.73354 0.720886 2.5467
lowerneck -16.263 8.8836 -3.60962
upperneck 12.365 12.7574 0.405618
head 6.13842 6.03183 1.92471
rclavicle 1.19271e-014 -7.55382e-015
rhumerus 139.406 137.704 72.0427
rradius 90.1007
rwrist 10.0315
rhand -29.9202 27.289
rfingers 7.12502
rthumb -3.2404 -2.66614
lclavicle 1.19271e-014 -7.55382e-015
lhumerus -43.9022 -32.6881 112.978
lradius 92.9049
lwrist 34.6985
lhand -33.9865 11.6967
lfingers 7.12502
lthumb -7.16655 41.5554
rfemur -50.3733 -4.1625 20.2389
rtibia 43.6551
rfoot -4.2964 -12.0591
rtoes 18.2017
lfemur -2.93608 4.81237 -23.4424
ltibia 23.4147
lfoot -25.1431 11.4045
ltoes -11.0668
865
root 11.4064 16.7089 -10.6171 9.85005 -65.4526 1.85953
lowerback 10.0825 1.24864 -2.52786
upperback 0.998358 1.41512 1.31551
thorax -4.70977 0.748508 2.59973
lowerneck -16.2356 8.83382 -3.65365
upperneck 12.3246 12.6887 0.462012
head 6.11577 6.0031 1.93916
rclavicle 1.19271e-015 -2.38542e-015
rhumerus 139.027 137.755 71.4414
rradius 89.8375
rwrist 10.1616
rhand -29.9094 27.2048
rfingers 7.12502
rthumb -3.22998 -2.75046
lclavicle 1.19271e-015 -2.38542e-015
lhumerus -44.1931 -32.3778 112.955
lradius 92.8597
lwrist 34.9387
lhand -34.0652 11.7517
lfingers 7.12502
lthumb -7.24246 41.6078
rfemur -50.4268 -4.19057 20.0176
rtibia 43.4249
rfoot -4.08031 -12.1374
rtoes 18.3089
lfemur -3.10601 5.05497 -23.5789
ltibia 23.3567
lfoot -25.178 10.8995
ltoes -10.9715
866
root 11.4301 16.7195 -10.624 9.48822 -65.4419 2.32486
lowerback 9.97607 1.31032 -2.84764
upperback 0.976544 1.45881 1.17976
thorax -4.68051 0.775521 2.63348
lowerneck -16.2317 8.78523 -3.71145
upperneck 12.3078 12.6204 0.557571
head 6.10093 5.97641 1.96969
rclavicle -4.57205e-015 1.19271e-015
rhumerus 138.643 137.83 70.8356
rradius 89.5899
rwrist 10.2408
rhand -29.8462 27.0718
rfingers 7.12502
rthumb -3.16895 -2.88435
lclavicle -4.57205e-015 1.19271e-015
lhumerus -44.4703 -32.0727 112.898
lradius 92.8175
lwrist 35.1886
lhand -34.0487 11.809
lfingers 7.12502
lthumb -7.22654 41.6656
rfemur -50.4578 -4.20791 19.7845
rtibia 43.1936
rfoot -3.88454 -12.2154
rtoes 18.4137
lfemur -3.24378 5.36599 -23.724
ltibia 23.2687
lfoot -25.1906 10.3345
ltoes -10.8807
867
root 11.4501 16.7313 -10.6294 9.14494 -65.4429 2.75737
lowerback 9.86509 1.3665 -3.1311
upperback 0.955211 1.49956 1.03734
thorax -4.64714 0.800111 2.64034
lowerneck -16.2468 8.73337 -3.79207
upperneck 12.3093 12.5484 0.690983
head 6.09119 5.94949 2.01642
rclavicle -1.8487e-014 4.77083e-015
rhumerus 138.259 137.921 70.2388
rradius 89.3576
rwrist 10.2654
rhand -29.764 26.9033
rfingers 7.12502
rthumb -3.08957 -3.0541
lclavicle -1.8487e-014 4.77083e-015
lhumerus -44.7292 -31.7717 112.815
lradius 92.7818
lwrist 35.4245
lhand -34.0061 11.8764
lfingers 7.12502
lthumb -7.18548 41.7345
rfemur -50.4547 -4.2201 19.5699
rtibia 42.956
rfoot -3.71311 -12.2922
rtoes 18.516
lfemur -3.33756 5.66331 -23.8648
ltibia 23.1497
lfoot -25.1623 9.8225
ltoes -10.8017
868
root 11.4671 16.744 -10.633 8.88917 -65.4497 3.07393
lowerback 9.76357 1.4112 -3.33708
upperback 0.933681 1.53373 0.89732
thorax -4.61694 0.819873 2.60685
lowerneck -16.2815 8.68058 -3.89581
upperneck 12.3302 12.4766 0.858356
head 6.08719 5.92384 2.07865
rclavicle 4.49253e-014 1.23246e-014
rhumerus 137.88 138.015 69.6549
rradius 89.1435
rwrist 10.2464
rhand -29.6838 26.7131
rfingers 7.12502
rthumb -3.0121 -3.2454
lclavicle 4.49253e-014 1.23246e-014
lhumerus -44.9816 -31.4724 112.72
lradius 92.7547
lwrist 35.6223
lhand -33.935 11.9468
lfingers 7.12502
lthumb -7.11683 41.8071
rfemur -50.4057 -4.22803 19.4103
rtibia 42.705
rfoot -3.56439 -12.3603
rtoes 18.585
lfemur -3.38258 5.88856 -23.9761
ltibia 23.0085
lfoot -25.0855 9.44716
ltoes -10.7653
869
root 11.4822 16.7573 -10.6354 8.75996 -65.45 3.2358
lowerback 9.68267 1.44126 -3.46301
upperback 0.905055 1.5575 0.775703
thorax -4.60335 0.83342 2.54855
lowerneck -16.3143 8.62446 -4.01586
upperneck 12.3521 12.4029 1.03311
head 6.08193 5.89717 2.14535
rclavicle -1.09332e-015 3.57812e-015
rhumerus 137.502 138.097 69.1003
rradius 88.9543
rwrist 10.1838
rhand -29.6335 26.5385
rfingers 7.12502
rthumb -2.9635 -3.42067
lclavicle -1.09332e-015 3.57812e-015
lhumerus -45.2341 -31.1857 112.637
lradius 92.7367
lwrist 35.7597
lhand -33.8792 12.0493
lfingers 7.12502
lthumb -7.06299 41.9114
rfemur -50.313 -4.2357 19.3229
rtibia 42.4351
rfoot -3.43944 -12.4236
rtoes 18.6467
lfemur -3.39361 6.00263 -24.0439
ltibia 22.8608
lfoot -24.9556 9.25566
ltoes -10.7803
